<svg xmlns="http://www.w3.org/2000/svg" width="420" height="96" viewBox="0 0 420 96" role="img" aria-labelledby="logoTitle logoDesc">
  <title id="logoTitle">Ethan Serville Logo</title>
  <desc id="logoDesc">Logo horizontal premium avec monogramme ES stylise</desc>
  <defs>
    <linearGradient id="esMarkBg" x1="8%" y1="8%" x2="92%" y2="92%">
      <stop offset="0%" stop-color="#d98a72" />
      <stop offset="100%" stop-color="#8f454b" />
    </linearGradient>
    <radialGradient id="esMarkGlow" cx="72%" cy="22%" r="72%">
      <stop offset="0%" stop-color="#ffffff" stop-opacity="0.48" />
      <stop offset="100%" stop-color="#ffffff" stop-opacity="0" />
    </radialGradient>
    <linearGradient id="esAccent" x1="0%" y1="0%" x2="0%" y2="100%">
      <stop offset="0%" stop-color="#f4ebd0" stop-opacity="0.9" />
      <stop offset="100%" stop-color="#d4a373" stop-opacity="0.9" />
    </linearGradient>
  </defs>

  <rect x="8" y="8" width="80" height="80" rx="22" fill="url(#esMarkBg)" />
  <rect x="8" y="8" width="80" height="80" rx="22" fill="none" stroke="#f4ebd0" stroke-opacity="0.42" stroke-width="1.5" />
  <rect x="8" y="8" width="80" height="80" rx="22" fill="url(#esMarkGlow)" />

  <g fill="none" stroke="#f8f9fa" stroke-linecap="round" stroke-linejoin="round">
    <path d="M36 32H62" stroke-width="7" />
    <path d="M36 48H57" stroke-width="7" />
    <path d="M36 64H62" stroke-width="7" />
    <path d="M63 35c-3.8-2.8-8.7-2.9-12.4-.3" stroke-width="5.5" opacity="0.92" />
    <path d="M50 61c3.9 2.7 8.7 2.6 12.3-.4" stroke-width="5.5" opacity="0.92" />
  </g>

  <rect x="105" y="24" width="3" height="48" rx="1.5" fill="url(#esAccent)" opacity="0.8" />

  <text x="126" y="45" font-family="Montserrat, Poppins, Segoe UI, Arial, sans-serif" font-weight="800" font-size="31" fill="#f8f9fa" letter-spacing="0.6">ETHAN</text>
  <text x="126" y="69" font-family="Montserrat, Poppins, Segoe UI, Arial, sans-serif" font-weight="600" font-size="16" fill="#d4a373" letter-spacing="4.2">SERVILLE</text>
</svg>
